<?xml version="1.0" encoding="utf-8"?>
<!-- Generator: Adobe Illustrator 15.0.0, SVG Export Plug-In . SVG Version: 6.00 Build 0)  -->
<!DOCTYPE svg PUBLIC "-//W3C//DTD SVG 1.1//EN" "http://www.w3.org/Graphics/SVG/1.1/DTD/svg11.dtd">
<svg version="1.1" id="Layer_1" xmlns="http://www.w3.org/2000/svg" xmlns:xlink="http://www.w3.org/1999/xlink" x="0px" y="0px"
	 width="100px" height="100px" viewBox="0 0 100 100" enable-background="new 0 0 100 100" xml:space="preserve">
<g id="online_education">
	<g>
		<path fill="#4088DA" d="M88.996,64.955c-0.68,3.73-1.856,10.18-2.554,14.02c-0.066,0.363-0.723,3.959-4.071,5.365
			c-0.986,0.414,3.769-0.635,4.427-0.514c0.659,0.121,1.769-0.234,1.89-0.893l3.461-22.256
			C90.494,61.543,89.332,63.117,88.996,64.955z"/>
		<path fill="#4088DA" d="M34.147,61.428c-0.408,1.369-0.329,13.463-0.749,15.246c-0.036,0.16-0.115,0.379-0.237,0.627
			c-0.98,2.139-4.522,7.031-6.068,9.912c-0.183,0.352-0.341,0.668-0.462,0.947c-0.17,0.391-0.317,0.848-0.451,1.316l-1.15-0.373
			l-3.926-1.266l2.222-1.818c0,0,0.006-0.008,0.018-0.02c0.268-0.438,5.545-8.924,6.227-10.02c0.968-1.545,0.505-8.709,1.218-9.951
			c2.86-4.979,3.938-10.115,4.011-14.079C35.504,53.783,35.553,56.748,34.147,61.428z"/>
		<path fill="#4088DA" d="M64.55,30.452c-0.012-0.615-0.055-1.394-0.139-2.337c-0.08-0.938-0.195-1.784-0.348-2.526
			c-0.177-0.834-0.554-1.534-1.132-2.106c-0.585-0.566-1.26-0.901-2.034-0.992c-2.41-0.286-6.057-0.426-10.938-0.426
			c-4.881,0-8.527,0.141-10.938,0.426c-0.773,0.091-1.449,0.426-2.027,0.992c-0.573,0.572-0.949,1.272-1.12,2.106
			c-0.165,0.743-0.286,1.589-0.366,2.526c-0.084,0.943-0.133,1.722-0.14,2.337c-0.012,0.615-0.018,1.473-0.018,2.569
			s0.006,1.954,0.018,2.568c0.006,0.615,0.055,1.394,0.14,2.337c0.08,0.938,0.195,1.784,0.348,2.526
			c0.176,0.834,0.554,1.534,1.132,2.106c0.584,0.565,1.26,0.901,2.033,0.992c2.41,0.286,6.056,0.426,10.938,0.426
			c4.881,0,8.527-0.14,10.938-0.426c0.774-0.091,1.449-0.426,2.027-0.992c0.572-0.572,0.949-1.278,1.121-2.106
			c0.163-0.743,0.285-1.589,0.365-2.526c0.084-0.943,0.127-1.722,0.139-2.337c0.013-0.615,0.02-1.473,0.02-2.568
			S64.562,31.067,64.55,30.452z M54.658,33.732l-6.457,4.243c-0.116,0.085-0.262,0.128-0.426,0.128c-0.127,0-0.255-0.03-0.389-0.104
			c-0.28-0.158-0.42-0.408-0.42-0.742v-8.473c0-0.341,0.14-0.584,0.42-0.743c0.286-0.159,0.554-0.152,0.815,0.024l6.457,4.236
			c0.257,0.152,0.384,0.389,0.384,0.718C55.042,33.349,54.915,33.586,54.658,33.732z"/>
		<circle fill="#4088DA" cx="49.351" cy="81.106" r="1.827"/>
		<circle fill="#4088DA" cx="55.438" cy="81.106" r="1.827"/>
		<circle fill="#4088DA" cx="43.264" cy="81.106" r="1.827"/>
	</g>
	<g>
		<path fill="#333333" d="M13.439,26.934c0.672,0,1.217-0.545,1.217-1.217V14.669c0-6.662,5.42-12.082,12.083-12.082h3.644
			c0.672,0,1.217-0.545,1.217-1.217s-0.545-1.217-1.217-1.217h-3.644c-8.005,0-14.517,6.512-14.517,14.517v11.048
			C12.222,26.389,12.767,26.934,13.439,26.934z"/>
		<circle fill="#333333" cx="24.324" cy="93.299" r="1.717"/>
		<path fill="#333333" d="M94.868,86.652l-1.546-4.785c-0.097-0.305-0.316-0.561-0.603-0.707c-0.286-0.145-0.62-0.176-0.932-0.078
			l-0.785,0.256c0.28-1.84,0.804-4.711,1.315-7.5c0.413-2.295,0.81-4.467,1.047-5.934c0.712-4.475,1.071-6.721,0.365-9.068
			c0,0-0.122-0.385-0.269-0.793c-1.15-3.014-5.434-8.179-13.067-15.789V14.681c0-3.983-3.241-7.225-7.226-7.225h-46.43
			c-3.978,0-7.213,3.235-7.213,7.213v27.622C11.88,49.902,7.602,55.062,6.458,58.049c-0.152,0.402-0.268,0.787-0.274,0.799
			c-0.694,2.336-0.341,4.582,0.372,9.057c0.237,1.504,0.645,3.742,1.077,6.111c0.499,2.721,1.01,5.525,1.278,7.322l-0.785-0.256
			c-0.304-0.098-0.64-0.066-0.925,0.078c-0.286,0.146-0.505,0.402-0.603,0.707l-1.546,4.785c-0.207,0.639,0.146,1.326,0.785,1.527
			c0.64,0.205,1.327-0.141,1.534-0.779l1.169-3.623l0.553,0.178l2.374,0.768l9.636,3.115l3.926,1.266l2.313,0.75l1.047,0.334
			l-2.654,8.217c-0.207,0.646,0.14,1.326,0.785,1.535c0.122,0.043,0.25,0.061,0.372,0.061c0.517,0,0.992-0.328,1.156-0.84
			l3.031-9.381c0.207-0.639-0.146-1.326-0.785-1.533l-2.021-0.65c0.209-0.383,0.457-0.805,0.727-1.248
			c0.201,0.148,0.447,0.236,0.715,0.236h40.489c0.269,0,0.515-0.088,0.715-0.236c0.271,0.445,0.519,0.865,0.728,1.248l-2.02,0.65
			c-0.646,0.207-0.992,0.895-0.786,1.533l3.025,9.381c0.171,0.512,0.646,0.84,1.163,0.84c0.121,0,0.249-0.018,0.371-0.061
			c0.64-0.209,0.993-0.889,0.785-1.535l-2.653-8.217l1.047-0.34l2.312-0.744l13.567-4.381l2.368-0.768l0.554-0.178l1.168,3.623
			c0.208,0.639,0.896,0.984,1.534,0.779C94.723,87.979,95.076,87.291,94.868,86.652z M21.961,14.669
			c0-2.634,2.144-4.778,4.778-4.778h46.43c2.642,0,4.79,2.148,4.79,4.79V42.76v20.836c-1.192-0.568-1.845-1.467-1.947-1.748
			c-0.529-1.326-0.754-3.074-0.968-4.766c-0.179-1.383-0.366-2.834-0.736-4.162V17.159c0-1.994-1.622-3.616-3.615-3.616H29.241
			c-2,0-3.627,1.622-3.627,3.616v35.746c-0.373,1.332-0.56,2.789-0.736,4.178c-0.213,1.691-0.438,3.445-0.962,4.771
			c-0.079,0.201-0.688,1.133-1.954,1.742V42.778V14.669z M64.605,61.756c0.158,0.621,0.249,4.395,0.316,7.152
			c0.076,3.068,0.139,5.32,0.244,6.719H34.75c0.107-1.393,0.171-3.633,0.244-6.682c0.067-2.764,0.164-6.545,0.322-7.178
			c1.759-5.854,1.564-9.951-0.572-12.172c-1.498-1.559-3.542-1.729-4.96-1.364c-0.676,0.175-1.244,0.449-1.735,0.793V17.159
			c0-0.64,0.546-1.181,1.193-1.181h41.452c0.64,0,1.181,0.541,1.181,1.181v31.873c-0.492-0.345-1.063-0.62-1.741-0.794
			c-1.417-0.365-3.464-0.201-4.96,1.357C63.035,51.816,62.841,55.92,64.605,61.756z M25.923,86.834L23.343,86l-11.857-3.834
			c-0.019-0.141-0.037-0.293-0.055-0.457c-0.237-1.766-0.828-5.004-1.4-8.133C9.599,71.221,9.191,69,8.96,67.525
			c-0.652-4.113-0.98-6.178-0.444-7.973c0.006-0.012,0.097-0.316,0.219-0.639c0.918-2.408,4.546-6.833,10.792-13.172v19.686
			c0,0.672,0.545,1.217,1.217,1.217c0.282,0,0.539-0.1,0.745-0.262c0.445-0.119,0.952-0.311,1.526-0.584
			c1.667-0.799,2.788-2.107,3.159-3.051c0.639-1.607,0.883-3.518,1.12-5.355c0.494-3.865,0.944-6.245,3.099-6.799
			c0.718-0.189,1.826-0.116,2.599,0.688c0.493,0.511,1.083,1.57,1.083,3.682c0,1.467-0.286,3.445-1.09,6.111
			c-0.231,0.768-0.304,2.965-0.426,7.811c-0.073,3.006-0.164,6.742-0.341,7.506c-0.018,0.07-0.067,0.199-0.164,0.4
			c-0.481,1.053-1.735,2.982-2.946,4.852C27.901,83.492,26.672,85.396,25.923,86.834z M30.386,84.15
			c0.253-0.393,0.51-0.787,0.766-1.182c1.239-1.916,2.405-3.719,2.99-4.906H65.78c0.601,1.223,1.762,3.008,2.988,4.906
			c0.256,0.393,0.513,0.789,0.767,1.182H30.386z M73.997,86.834c-0.743-1.432-1.984-3.336-3.184-5.191
			c-1.212-1.869-2.465-3.799-2.963-4.889c-0.074-0.146-0.123-0.279-0.16-0.389c-0.171-0.846-0.261-4.541-0.334-7.512
			c-0.116-4.82-0.195-7.012-0.42-7.785c-1.955-6.488-0.847-8.917-0.012-9.787c0.772-0.804,1.88-0.865,2.6-0.682
			c2.153,0.555,2.61,2.934,3.104,6.787c0.237,1.844,0.48,3.75,1.113,5.35c0.354,0.914,1.491,2.264,3.165,3.055
			c0.507,0.246,1.007,0.43,1.466,0.555c0.215,0.191,0.495,0.311,0.805,0.311c0.672,0,1.218-0.545,1.218-1.217v-0.158V45.706
			c7.706,7.839,10.141,11.498,10.785,13.191c0.122,0.328,0.22,0.645,0.22,0.645c0.541,1.807,0.219,3.871-0.439,7.979
			c-0.229,1.443-0.62,3.598-1.04,5.881c-0.585,3.201-1.188,6.514-1.431,8.309v0.006c-0.019,0.158-0.036,0.311-0.049,0.451
			L73.997,86.834z"/>
		<circle fill="#333333" cx="75.595" cy="93.299" r="1.717"/>
		<path fill="#333333" d="M86.48,36.28c0.672,0,1.218-0.545,1.218-1.218V21.468c0-0.672-0.546-1.217-1.218-1.217
			s-1.217,0.545-1.217,1.217v13.595C85.264,35.735,85.809,36.28,86.48,36.28z"/>
		<path fill="#333333" d="M39.003,52.498H58.48c0.673,0,1.218-0.545,1.218-1.217s-0.545-1.218-1.218-1.218H39.003
			c-0.672,0-1.218,0.546-1.218,1.218S38.331,52.498,39.003,52.498z"/>
		<path fill="#333333" d="M39.003,57.369h12.174c0.672,0,1.217-0.547,1.217-1.219s-0.545-1.217-1.217-1.217H39.003
			c-0.672,0-1.218,0.545-1.218,1.217S38.331,57.369,39.003,57.369z"/>
		<path fill="#333333" d="M48.742,67.107h-9.739c-0.672,0-1.218,0.545-1.218,1.217s0.545,1.217,1.218,1.217h9.739
			c0.672,0,1.218-0.545,1.218-1.217S49.415,67.107,48.742,67.107z"/>
		<path fill="#333333" d="M59.698,67.107h-7.304c-0.673,0-1.217,0.545-1.217,1.217s0.544,1.217,1.217,1.217h7.304
			c0.673,0,1.217-0.545,1.217-1.217S60.371,67.107,59.698,67.107z"/>
		<path fill="#333333" d="M60.915,62.238H39.003c-0.672,0-1.218,0.543-1.218,1.217c0,0.672,0.545,1.217,1.218,1.217h21.912
			c0.673,0,1.218-0.545,1.218-1.217C62.133,62.781,61.588,62.238,60.915,62.238z"/>
		<circle fill="#333333" cx="34.256" cy="1.369" r="1.369"/>
		<circle fill="#333333" cx="86.48" cy="39.382" r="1.37"/>
	</g>
</g>
</svg>
