<?xml version="1.0" encoding="utf-8"?>
<!-- Generator: Adobe Illustrator 15.0.0, SVG Export Plug-In . SVG Version: 6.00 Build 0)  -->
<!DOCTYPE svg PUBLIC "-//W3C//DTD SVG 1.1//EN" "http://www.w3.org/Graphics/SVG/1.1/DTD/svg11.dtd">
<svg version="1.1" id="Layer_1" xmlns="http://www.w3.org/2000/svg" xmlns:xlink="http://www.w3.org/1999/xlink" x="0px" y="0px"
	 width="100px" height="100px" viewBox="0 0 100 100" enable-background="new 0 0 100 100" xml:space="preserve">
<g id="online_tutorials">
	<g>
		<path fill="#4088DA" d="M47.5,70.557v4.733c0,1.302,1.125,2.366,2.5,2.366s2.5-1.064,2.5-2.366v-4.733H47.5z"/>
		<path fill="#4088DA" d="M49.442,41.536c0.174-0.762,0.305-1.626,0.392-2.594c0.088-0.966,0.137-1.767,0.148-2.399
			C49.994,35.91,50,35.032,50,33.906s-0.006-2.004-0.019-2.637c-0.011-0.634-0.06-1.433-0.148-2.4
			c-0.086-0.966-0.212-1.831-0.375-2.593c-0.186-0.855-0.59-1.576-1.212-2.162c-0.622-0.586-1.345-0.925-2.171-1.019
			c-2.581-0.293-6.48-0.439-11.701-0.439c-5.219,0-9.12,0.146-11.701,0.439c-0.826,0.094-1.545,0.433-2.163,1.019
			c-0.616,0.586-1.017,1.307-1.203,2.162c-0.174,0.762-0.305,1.626-0.392,2.593c-0.087,0.967-0.136,1.766-0.148,2.4
			c-0.011,0.633-0.017,1.511-0.017,2.637s0.006,2.004,0.017,2.637c0.012,0.633,0.061,1.433,0.148,2.399
			c0.087,0.967,0.211,1.832,0.375,2.594c0.186,0.854,0.59,1.576,1.212,2.162c0.621,0.586,1.345,0.925,2.17,1.019
			c2.581,0.293,6.482,0.439,11.701,0.439c5.221,0,9.121-0.146,11.701-0.439c0.826-0.094,1.546-0.433,2.164-1.019
			C48.855,43.112,49.255,42.39,49.442,41.536z M39.403,34.64l-6.908,4.352c-0.126,0.09-0.279,0.135-0.458,0.135
			c-0.136,0-0.275-0.037-0.419-0.108c-0.297-0.164-0.446-0.417-0.446-0.762v-8.704c0-0.345,0.149-0.598,0.446-0.762
			c0.306-0.164,0.598-0.155,0.877,0.028l6.908,4.352c0.271,0.154,0.405,0.398,0.405,0.734C39.809,34.241,39.674,34.485,39.403,34.64
			z"/>
	</g>
	<g>
		<path fill="#333333" d="M86.25,12.657h-72.5c-0.691,0-1.25,0.559-1.25,1.25v51.25c0,0.689,0.559,1.25,1.25,1.25h72.5
			c0.688,0,1.25-0.561,1.25-1.25v-51.25C87.5,13.216,86.938,12.657,86.25,12.657z M85,63.905H15V15.156h70V63.905z"/>
		<path fill="#333333" d="M21.25,51.405h25c0.69,0,1.25-0.558,1.25-1.25c0-0.69-0.56-1.25-1.25-1.25h-25
			c-0.69,0-1.25,0.559-1.25,1.25C20,50.848,20.56,51.405,21.25,51.405z"/>
		<path fill="#333333" d="M21.25,56.406h7.5c0.69,0,1.25-0.559,1.25-1.251c0-0.69-0.559-1.249-1.25-1.249h-7.5
			c-0.69,0-1.25,0.559-1.25,1.249C20,55.848,20.56,56.406,21.25,56.406z"/>
		<path fill="#333333" d="M43.75,53.906h-10c-0.69,0-1.25,0.559-1.25,1.249c0,0.692,0.56,1.251,1.25,1.251h10
			c0.69,0,1.25-0.559,1.25-1.251C45,54.465,44.44,53.906,43.75,53.906z"/>
		<circle fill="#333333" cx="82.5" cy="95.156" r="1.406"/>
		<circle fill="#333333" cx="33.75" cy="1.406" r="1.406"/>
		<circle fill="#333333" cx="75" cy="77.656" r="1.406"/>
		<path fill="#333333" d="M78.75,93.906H15c-0.69,0-1.25,0.56-1.25,1.249c0,0.691,0.56,1.251,1.25,1.251h63.75
			c0.688,0,1.25-0.56,1.25-1.251C80,94.466,79.438,93.906,78.75,93.906z"/>
		<path fill="#333333" d="M96.25,88.905h-25v-3.749c0-0.691-0.56-1.25-1.25-1.25h-6.812c-1.057-1.738-1.618-3.718-1.618-5.763
			v-6.737h28.022c1.604,0,2.908-1.304,2.908-2.908V10.379c0-1.501-1.224-2.723-2.726-2.723H10.224c-1.502,0-2.724,1.222-2.724,2.723
			v58.303c0,1.501,1.222,2.724,2.724,2.724h28.104v6.737c0,2.045-0.562,4.024-1.617,5.763H30c-0.69,0-1.25,0.559-1.25,1.25v3.749
			h-25c-0.69,0-1.25,0.56-1.25,1.251c0,0.689,0.56,1.25,1.25,1.25H30h40h26.25c0.69,0,1.25-0.561,1.25-1.25
			C97.5,89.465,96.94,88.905,96.25,88.905z M10,68.683V10.379c0-0.123,0.1-0.223,0.224-0.223h79.551c0.126,0,0.226,0.1,0.226,0.223
			v58.119c0,0.226-0.183,0.408-0.408,0.408H10.224C10.1,68.906,10,68.806,10,68.683z M48.75,71.406h2.5v3.884
			c0,0.604-0.573,1.115-1.25,1.115c-0.678,0-1.25-0.511-1.25-1.115V71.406z M40.827,78.144v-6.737h5.422v3.884
			c0,1.993,1.683,3.616,3.75,3.616c2.068,0,3.75-1.623,3.75-3.616v-3.884h5.319v6.737c0,2.008,0.44,3.969,1.278,5.763H39.549
			C40.388,82.112,40.827,80.151,40.827,78.144z M31.25,88.905v-2.5h37.5v2.5H31.25z"/>
		<path fill="#333333" d="M60,55.416c-0.69,0-1.25,0.559-1.25,1.249v3.341c0,0.69,0.56,1.251,1.25,1.251
			c0.688,0,1.25-0.561,1.25-1.251v-3.341C61.25,55.975,60.688,55.416,60,55.416z"/>
		<path fill="#333333" d="M75,55.416c-0.69,0-1.25,0.559-1.25,1.249v3.341c0,0.69,0.56,1.251,1.25,1.251s1.25-0.561,1.25-1.251
			v-3.341C76.25,55.975,75.69,55.416,75,55.416z"/>
		<path fill="#333333" d="M53.711,61.178c0.691-0.022,1.232-0.6,1.209-1.291c-0.02-0.663-0.087-6.574,4.162-9.536
			c0.682-0.476,1.433-0.848,2.246-1.115c0.614,3.52,4.483,6.095,6.142,6.095c0.011,0,0.048,0,0.061,0c1.66,0,5.525-2.575,6.14-6.095
			c0.813,0.268,1.564,0.64,2.248,1.115c4.249,2.961,4.182,8.873,4.16,9.536c-0.021,0.691,0.519,1.269,1.209,1.291
			c0.015,0,0.026,0,0.041,0c0.671,0,1.227-0.532,1.248-1.208c0.045-1.312-0.009-8.03-5.229-11.669
			c-1.367-0.954-2.942-1.585-4.677-1.877c-0.393-0.065-0.796,0.06-1.082,0.339c-0.285,0.278-0.419,0.677-0.363,1.073
			c0.02,0.124,0.026,0.276,0.026,0.451c0,2.446-3.027,4.456-3.75,4.547c-0.727-0.091-3.757-2.101-3.757-4.547
			c0-0.175,0.01-0.327,0.028-0.451c0.057-0.396-0.078-0.794-0.364-1.073c-0.284-0.28-0.689-0.404-1.08-0.339
			c-1.736,0.292-3.31,0.923-4.678,1.877c-5.219,3.639-5.271,10.358-5.229,11.669C52.445,60.659,52.996,61.178,53.711,61.178z"/>
		<path fill="#333333" d="M55.323,45.121c0.171,0.527,0.661,0.863,1.186,0.863c0.13,0,0.258-0.02,0.388-0.062
			c0.657-0.214,1.018-0.919,0.803-1.576c-0.31-0.945-1.215-4.589-1.408-7.96c-0.282-4.949-0.549-9.625,2.392-12.859
			c2.385-2.626,5.939-3.283,8.459-3.371l0.554,0c2.561,0.088,6.117,0.745,8.503,3.371c2.94,3.235,2.671,7.909,2.391,12.859
			c-0.192,3.367-1.1,7.014-1.408,7.96c-0.213,0.656,0.147,1.362,0.803,1.575c0.658,0.214,1.363-0.145,1.574-0.801
			c0.395-1.208,1.323-5.047,1.525-8.592c0.302-5.247,0.611-10.672-3.034-14.684c-2.973-3.271-7.224-4.083-10.31-4.188l-0.643,0
			c-3.041,0.105-7.294,0.917-10.265,4.189c-3.646,4.011-3.336,9.437-3.035,14.684C54,40.077,54.93,43.915,55.323,45.121z"/>
		<path fill="#333333" d="M64.295,38.273c-0.41,0.554-0.296,1.336,0.256,1.749c0.923,0.688,1.949,1.051,2.964,1.051
			c1.016,0,2.041-0.363,2.965-1.051c0.554-0.413,0.668-1.195,0.256-1.749c-0.412-0.553-1.197-0.668-1.749-0.255
			c-0.991,0.737-1.95,0.738-2.942,0C65.49,37.605,64.707,37.72,64.295,38.273z"/>
		<path fill="#333333" d="M70.547,33.332c0.007-0.006,0.073-0.06,0.165-0.062c0.002,0,0.002,0,0.004,0
			c0.096,0,0.163,0.059,0.167,0.062c0.235,0.203,0.525,0.302,0.812,0.302c0.354,0,0.702-0.147,0.948-0.435
			c0.453-0.524,0.391-1.312-0.131-1.763c-0.503-0.434-1.195-0.675-1.836-0.666c-0.872,0.012-1.476,0.422-1.758,0.666
			c-0.525,0.45-0.584,1.238-0.135,1.763C69.236,33.723,70.024,33.782,70.547,33.332z"/>
		<path fill="#333333" d="M58.96,29.568c-0.686-0.089-1.311,0.399-1.399,1.083c-0.067,0.554-0.104,1.118-0.102,1.677
			c0.002,0.764,0.071,1.533,0.208,2.285c0.011,0.069,0.032,0.134,0.053,0.198c0.672,3.994,3.808,10.167,9.617,10.292h0.1l0.129,0
			c5.898-0.126,9.031-6.499,9.62-10.475c0.625-3.958-0.365-7.269-2.711-9.078c-0.879-0.684-1.942-1.146-3.122-1.379
			c0.01-0.046,0.021-0.097,0.03-0.14c0.141-0.676-0.293-1.338-0.968-1.479c-0.676-0.14-1.338,0.293-1.479,0.969
			c-0.232,1.108-1.062,3.909-3.78,5.968c-1.834,1.391-3.757,1.88-5.167,2.033c0.015-0.187,0.03-0.374,0.054-0.558
			C60.13,30.281,59.644,29.655,58.96,29.568z M70.547,26.567c0.764,0.11,1.641,0.373,2.398,0.96
			c2.276,1.757,1.996,5.281,1.769,6.725c-0.396,2.683-2.681,8.254-7.175,8.352h-0.176c-4.505-0.097-6.797-5.671-7.2-8.326
			l-0.016-0.131c-0.006-0.036-0.013-0.084-0.018-0.127c0.812-0.081,1.771-0.251,2.802-0.588c0.452,0.289,1.055,0.267,1.484-0.101
			c0.009-0.006,0.071-0.06,0.163-0.062c0,0,0.004,0,0.004,0c0.094,0,0.163,0.059,0.168,0.062c0.234,0.203,0.524,0.302,0.813,0.302
			c0.352,0,0.7-0.147,0.95-0.435c0.401-0.47,0.393-1.153,0.009-1.613c0.046-0.035,0.094-0.067,0.144-0.104
			C68.679,29.958,69.858,28.11,70.547,26.567z"/>
		<path fill="#333333" d="M98.75,46.406c-0.69,0-1.25,0.56-1.25,1.25v20.842c0,4.36-3.548,7.907-7.908,7.907H78.75
			c-0.69,0-1.25,0.56-1.25,1.251c0,0.689,0.56,1.25,1.25,1.25h10.842c5.736,0,10.408-4.669,10.408-10.408V47.656
			C100,46.966,99.438,46.406,98.75,46.406z"/>
		<path fill="#333333" d="M2.5,10.379c0-4.259,3.464-7.723,7.724-7.723H28.75c0.69,0,1.25-0.56,1.25-1.25s-0.559-1.25-1.25-1.25
			H10.224C4.586,0.157,0,4.743,0,10.379v6.027c0,0.691,0.56,1.25,1.25,1.25s1.25-0.559,1.25-1.25V10.379z"/>
	</g>
</g>
</svg>
