<?xml version="1.0" encoding="utf-8"?>
<!-- Generator: Adobe Illustrator 15.0.0, SVG Export Plug-In . SVG Version: 6.00 Build 0)  -->
<!DOCTYPE svg PUBLIC "-//W3C//DTD SVG 1.1//EN" "http://www.w3.org/Graphics/SVG/1.1/DTD/svg11.dtd">
<svg version="1.1" id="Layer_1" xmlns="http://www.w3.org/2000/svg" xmlns:xlink="http://www.w3.org/1999/xlink" x="0px" y="0px"
	 width="100px" height="100px" viewBox="0 0 100 100" enable-background="new 0 0 100 100" xml:space="preserve">
<g id="certificate">
	<g>
		<path fill="#4088DA" d="M87.639,57.067l-6.013,5.564c-0.767,0.742-2.051,0.193-2.051-0.875V47.572
			c0-0.039-0.014-0.077-0.014-0.115c0-0.14-0.025-0.268-0.037-0.409c-0.025-0.115-0.039-0.23-0.064-0.345
			c-0.025-0.128-0.064-0.243-0.103-0.357c-0.038-0.115-0.076-0.23-0.128-0.345c-0.051-0.115-0.115-0.217-0.179-0.333
			c-0.063-0.102-0.115-0.204-0.191-0.306c-0.064-0.103-0.153-0.192-0.243-0.294c-0.076-0.09-0.152-0.179-0.242-0.269l-0.27-0.23
			c-0.114-0.077-0.217-0.166-0.332-0.23c-0.037-0.025-0.063-0.051-0.102-0.077l-1.112-0.645c0,0,0-0.006-0.006-0.006l-0.358-0.211
			l-0.453-0.262v-0.013h-5.035l3.757,2.198v30.108c0.46-0.185,0.895-0.473,1.265-0.842l1.291-1.292L88.56,61.771v-3.834
			C87.28,57.937,88.636,56.108,87.639,57.067z"/>
		<path fill="#4088DA" d="M60.7,68.492c-0.033-0.013-0.07,0-0.09,0.026c-0.717,0.881-1.681,1.494-2.754,1.763l3.559,7.834
			l1.904-5.08l5.08,1.904l-3.304-7.259C63.817,68.601,62.22,68.901,60.7,68.492z"/>
		<path fill="#4088DA" d="M51.722,78.115l3.559-7.834c-1.072-0.269-2.037-0.882-2.753-1.763c-0.02-0.026-0.052-0.039-0.083-0.026
			c-1.521,0.402-3.131,0.108-4.403-0.817l-3.297,7.265l5.073-1.904L51.722,78.115z"/>
		<path fill="#4088DA" d="M54.885,61.431c0.536,0.167,1.099,0.256,1.687,0.256s1.156-0.089,1.688-0.256
			c1.227-0.377,2.281-1.156,3.01-2.178c0.664-0.939,1.054-2.084,1.054-3.316c0-3.17-2.581-5.751-5.751-5.751
			c-3.176,0-5.751,2.581-5.751,5.751c0,1.232,0.39,2.37,1.055,3.309C52.597,60.274,53.651,61.061,54.885,61.431z"/>
		<path fill="#4088DA" d="M45.069,58.812c0,1.048,0.627,2.057,1.693,2.467c0.493,0.186,0.902,0.511,1.195,0.914
			c0.294,0.408,0.473,0.895,0.499,1.418c0.032,0.639,0.294,1.208,0.69,1.643c0.484,0.536,1.188,0.861,1.936,0.861
			c0.23,0,0.467-0.031,0.695-0.095c0.225-0.058,0.455-0.09,0.678-0.09c0.793,0,1.553,0.352,2.059,0.983
			c0.485,0.596,1.162,0.921,1.859,0.973c0.064,0.006,0.134,0.006,0.197,0.006c0.064,0,0.128,0,0.199-0.006
			c0.689-0.052,1.367-0.377,1.853-0.973c0.511-0.632,1.271-0.983,2.058-0.983c0.223,0,0.453,0.032,0.677,0.09
			c0.23,0.063,0.467,0.095,0.696,0.095c0.754,0,1.451-0.325,1.943-0.861c0.396-0.435,0.658-1.004,0.684-1.643
			c0.031-0.523,0.211-1.01,0.504-1.418c0.295-0.403,0.703-0.729,1.189-0.914c1.073-0.41,1.699-1.419,1.699-2.467
			c0-0.492-0.141-0.99-0.428-1.438c-0.287-0.435-0.429-0.939-0.429-1.438c0-0.506,0.142-1.004,0.429-1.438
			c0.287-0.448,0.428-0.947,0.428-1.438c0-1.047-0.626-2.064-1.699-2.473c-0.486-0.186-0.895-0.505-1.189-0.914
			c-0.293-0.402-0.473-0.889-0.504-1.412c-0.07-1.445-1.271-2.505-2.633-2.505c-0.23,0-0.46,0.026-0.69,0.089
			c-1.003,0.274-2.077-0.077-2.734-0.888c-0.53-0.658-1.291-0.984-2.052-0.984c-0.766,0-1.527,0.326-2.057,0.984
			c-0.506,0.626-1.26,0.978-2.045,0.978c-0.23,0-0.461-0.026-0.691-0.089c-0.229-0.063-0.459-0.089-0.689-0.089
			c-1.36,0-2.555,1.06-2.632,2.505c-0.026,0.523-0.205,1.01-0.499,1.412c-0.293,0.409-0.702,0.728-1.195,0.914
			c-1.066,0.408-1.693,1.418-1.693,2.473c0,0.491,0.135,0.99,0.43,1.438c0.287,0.434,0.428,0.932,0.428,1.438
			c0,0.498-0.141,1.003-0.428,1.438C45.204,57.821,45.069,58.319,45.069,58.812z M48.349,54.78c0.134-0.979,0.439-1.904,0.895-2.741
			c0.363-0.69,0.824-1.316,1.36-1.873c0.665-0.69,1.45-1.265,2.326-1.7c0.685-0.332,1.425-0.575,2.198-0.709
			c0.473-0.083,0.951-0.128,1.443-0.128s0.972,0.045,1.438,0.128c0.78,0.134,1.527,0.383,2.218,0.722
			c0.868,0.428,1.649,0.997,2.313,1.687c0.537,0.557,0.996,1.188,1.367,1.879c0.447,0.837,0.754,1.757,0.889,2.735
			c0.057,0.377,0.082,0.766,0.082,1.156c0,0.39-0.025,0.779-0.082,1.156c-0.135,0.978-0.441,1.898-0.889,2.734
			c-0.371,0.69-0.83,1.323-1.367,1.879c-0.039,0.038-0.07,0.07-0.109,0.109c-0.639,0.639-1.379,1.175-2.204,1.578
			c-0.671,0.332-1.38,0.568-2.134,0.709l0.025-0.051c-0.039,0.018-0.083,0.044-0.121,0.069c-0.461,0.077-0.939,0.122-1.426,0.122
			c-0.485,0-0.959-0.045-1.424-0.122c-0.039-0.025-0.084-0.052-0.123-0.069l0.027,0.051c-0.755-0.141-1.465-0.377-2.135-0.709
			c-0.824-0.409-1.572-0.939-2.211-1.585c-0.039-0.032-0.07-0.07-0.103-0.103c-0.536-0.556-0.997-1.182-1.36-1.873
			c-0.455-0.836-0.761-1.763-0.895-2.74c-0.058-0.377-0.084-0.767-0.084-1.156C48.265,55.546,48.291,55.157,48.349,54.78z"/>
		<path fill="#4088DA" d="M62.96,84.505v-1.278H43.811H18.276h-0.005H5.492v1.278c0,3.515,2.875,6.39,6.39,6.39
			c0.001,0,0.003-0.001,0.005-0.001v0.001h57.462C65.835,90.895,62.96,88.02,62.96,84.505z"/>
		<path fill="#4088DA" d="M84.685,13.578c0-2.224-1.648-4.102-3.809-4.421c-0.217-0.039-0.434-0.051-0.664-0.051
			c-2.467,0-4.473,2.019-4.473,4.473v3.195h8.945V13.578z"/>
	</g>
	<g>
		<path fill="#333333" d="M95.639,67.182l-5.802-5.937V42.946c0-0.089-0.01-0.175-0.027-0.258c-0.133-2.134-1.314-4.091-3.161-5.179
			l-9.63-5.636V18.051h7.666c0.705,0,1.277-0.572,1.277-1.278v-3.195c0-2.829-2.105-5.272-4.861-5.68
			c-0.271-0.048-0.553-0.071-0.886-0.071h-0.001H18.898c-3.176,0-5.751,2.582-5.751,5.75v44.09c0,0.083,0.006,0.172,0.025,0.249
			v24.032h-7.68c-0.703,0-1.278,0.575-1.278,1.277v1.278c0,4.23,3.438,7.668,7.668,7.668h5.661H69.37c0.007,0,0.007,0,0.014,0
			c4.211-0.02,7.635-3.451,7.635-7.668v-9.399L88.54,63.585l5.271,5.387c0.492,0.505,1.297,0.511,1.802,0.019
			C96.118,68.499,96.131,67.687,95.639,67.182z M85.358,39.719c1.182,0.69,1.922,1.981,1.922,3.367v18.142l-10.262,9.878l0,0V44.594
			c0-0.057-0.006-0.108-0.012-0.166c-0.007-0.051-0.014-0.108-0.033-0.16c-0.012-0.051-0.025-0.103-0.051-0.153
			c-0.02-0.051-0.045-0.103-0.07-0.147c-0.025-0.044-0.051-0.089-0.076-0.127c-0.02-0.019-0.032-0.039-0.051-0.058
			c-0.026-0.032-0.051-0.057-0.084-0.089c-0.025-0.032-0.051-0.058-0.083-0.077c0,0,0-0.006-0.006-0.006
			c-0.052-0.045-0.108-0.083-0.166-0.122l-0.039-0.019l-7.297-4.269c-1.853-1.093-2.479-3.482-1.399-5.335
			c0.697-1.188,1.994-1.923,3.387-1.923c0.678,0,1.348,0.185,1.942,0.523l2.026,1.188l0.019,0.013l0.153,0.089L85.358,39.719z
			 M83.407,13.578v1.917h-6.389v-1.917c0-1.763,1.432-3.195,3.195-3.195c0.179,0,0.318,0.01,0.475,0.038
			C82.238,10.65,83.407,12.008,83.407,13.578z M14.431,89.616H11.85c-2.805-0.019-5.08-2.307-5.08-5.111h6.402h2.556h45.955
			c0,1.962,0.742,3.757,1.956,5.111H14.431z M74.463,84.505c0,2.818-2.287,5.105-5.104,5.111c-0.008,0-0.008,0-0.008,0
			c-2.816,0-5.111-2.293-5.111-5.111v-1.278c0-0.702-0.574-1.277-1.278-1.277H15.728V57.668c0-0.083-0.013-0.173-0.025-0.249V13.578
			c0-1.763,1.431-3.195,3.195-3.195h56.535c-0.139,0.209-0.262,0.43-0.373,0.657c-0.021,0.041-0.04,0.081-0.06,0.122
			c-0.216,0.463-0.37,0.958-0.456,1.479c-0.007,0.045-0.014,0.09-0.021,0.136c-0.037,0.263-0.062,0.529-0.062,0.802v3.195
			c0,0.008,0.002,0.015,0.002,0.022v13.582l-0.192-0.115c-0.99-0.575-2.107-0.875-3.232-0.875c-2.294,0-4.441,1.221-5.591,3.188
			c-1.789,3.067-0.754,7.022,2.313,8.824l2.945,1.725l3.757,2.198v28.665v2.805V84.505z"/>
		<circle fill="#333333" cx="88.557" cy="69.765" r="1.803"/>
		<path fill="#333333" d="M65.515,19.329c0-0.706-0.572-1.278-1.277-1.278h-7.668c-0.705,0-1.277,0.572-1.277,1.278
			s0.572,1.278,1.277,1.278h7.668C64.942,20.607,65.515,20.035,65.515,19.329z"/>
		<path fill="#333333" d="M23.363,20.607h28.095c0.705,0,1.277-0.572,1.277-1.278s-0.572-1.278-1.277-1.278H23.363
			c-0.706,0-1.278,0.572-1.278,1.278S22.657,20.607,23.363,20.607z"/>
		<path fill="#333333" d="M60.403,25.719H23.363c-0.706,0-1.278,0.572-1.278,1.278c0,0.706,0.572,1.278,1.278,1.278h37.041
			c0.705,0,1.277-0.572,1.277-1.278C61.681,26.291,61.108,25.719,60.403,25.719z"/>
		<path fill="#333333" d="M59.126,33.387H36.122c-0.706,0-1.278,0.572-1.278,1.278s0.572,1.278,1.278,1.278h23.004
			c0.705,0,1.277-0.572,1.277-1.278S59.831,33.387,59.126,33.387z"/>
		<path fill="#333333" d="M45.067,41.054H23.363c-0.706,0-1.278,0.572-1.278,1.278c0,0.706,0.572,1.278,1.278,1.278h21.705
			c0.706,0,1.278-0.572,1.278-1.278C46.346,41.626,45.773,41.054,45.067,41.054z"/>
		<path fill="#333333" d="M23.363,35.942h7.647c0.706,0,1.278-0.572,1.278-1.278s-0.572-1.278-1.278-1.278h-7.647
			c-0.706,0-1.278,0.572-1.278,1.278S22.657,35.942,23.363,35.942z"/>
		<path fill="#333333" d="M23.363,51.277h17.871c0.706,0,1.278-0.572,1.278-1.277c0-0.706-0.572-1.278-1.278-1.278H23.363
			c-0.706,0-1.278,0.572-1.278,1.278C22.084,50.705,22.657,51.277,23.363,51.277z"/>
		<path fill="#333333" d="M23.363,58.946H37.4c0.706,0,1.278-0.572,1.278-1.278S38.106,56.39,37.4,56.39H23.363
			c-0.706,0-1.278,0.572-1.278,1.278S22.657,58.946,23.363,58.946z"/>
		<path fill="#333333" d="M42.512,64.058H23.363c-0.706,0-1.278,0.572-1.278,1.277c0,0.706,0.572,1.278,1.278,1.278h19.149
			c0.706,0,1.278-0.572,1.278-1.278C43.79,64.63,43.218,64.058,42.512,64.058z"/>
		<path fill="#333333" d="M38.678,71.726H23.363c-0.706,0-1.278,0.572-1.278,1.277c0,0.706,0.572,1.278,1.278,1.278h15.315
			c0.706,0,1.278-0.572,1.278-1.278C39.956,72.298,39.384,71.726,38.678,71.726z"/>
		<path fill="#333333" d="M6.754,35.942c0.706,0,1.278-0.572,1.278-1.278V13.578c0-5.99,4.873-10.862,10.862-10.862h5.726
			c0.706,0,1.278-0.572,1.278-1.278c0-0.706-0.572-1.278-1.278-1.278h-5.726c-7.398,0-13.418,6.02-13.418,13.418v21.086
			C5.476,35.37,6.048,35.942,6.754,35.942z"/>
		<circle fill="#333333" cx="28.455" cy="1.438" r="1.438"/>
		<circle fill="#333333" cx="50.22" cy="98.562" r="1.438"/>
		<path fill="#333333" d="M83.407,83.227c-0.706,0-1.277,0.572-1.277,1.278c0,7.047-5.734,12.779-12.781,12.779H54.054
			c-0.705,0-1.277,0.572-1.277,1.278c0,0.705,0.572,1.277,1.277,1.277H69.35c8.456,0,15.335-6.879,15.335-15.335
			C84.685,83.799,84.112,83.227,83.407,83.227z"/>
	</g>
</g>
</svg>
